HIERARCHY
ROOT MidHip
{
    OFFSET 0.0 0.0 0.0
    CHANNELS 6 Xposition Yposition Zposition Zrotation Xrotation Yrotation
    JOINT Spine
    {
        OFFSET 0.0 0.0 14.172530334970062
        CHANNELS 3 Zrotation Xrotation Yrotation
        JOINT MidShoulder
        {
            OFFSET 0.0 0.0 14.172530334970062
            CHANNELS 3 Zrotation Xrotation Yrotation
            JOINT Nose
            {
                OFFSET 0.0 0.0 11.012460190925133
                CHANNELS 3 Zrotation Xrotation Yrotation
                End Site
                {
                    OFFSET 0.0 0.0 4.404984076370053
                }
            }
            JOINT RightShoulder
            {
                OFFSET -9.518660720188084 0.0 0.0
                CHANNELS 3 Zrotation Xrotation Yrotation
                JOINT RightElbow
                {
                    OFFSET -13.921090194112036 0.0 0.0
                    CHANNELS 3 Zrotation Xrotation Yrotation
                    JOINT RightWrist
                    {
                        OFFSET -11.794763008219645 0.0 0.0
                        CHANNELS 3 Zrotation Xrotation Yrotation
                        End Site
                        {
                            OFFSET -3.336062762240141 3.336062762240141 0.0
                        }
                        End Site
                        {
                            OFFSET -4.717905203287858 0.0 0.0
                        }
                        End Site
                        {
                            OFFSET -3.336062762240141 -3.336062762240141 0.0
                        }
                    }
                }
            }
            JOINT LeftShoulder
            {
                OFFSET 9.518660720188084 0.0 0.0
                CHANNELS 3 Zrotation Xrotation Yrotation
                JOINT LeftElbow
                {
                    OFFSET 13.921090194112036 0.0 0.0
                    CHANNELS 3 Zrotation Xrotation Yrotation
                    JOINT LeftWrist
                    {
                        OFFSET 11.794763008219645 0.0 0.0
                        CHANNELS 3 Zrotation Xrotation Yrotation
                        End Site
                        {
                            OFFSET 3.336062762240141 3.336062762240141 0.0
                        }
                        End Site
                        {
                            OFFSET 4.717905203287858 0.0 0.0
                        }
                        End Site
                        {
                            OFFSET 3.336062762240141 -3.336062762240141 0.0
                        }
                    }
                }
            }
        }
    }
    JOINT RightHip
    {
        OFFSET -5.381052733225881 0.0 0.0
        CHANNELS 3 Zrotation Xrotation Yrotation
        JOINT RightKnee
        {
            OFFSET 0.0 0.0 -18.733864813563073
            CHANNELS 3 Zrotation Xrotation Yrotation
            JOINT RightAnkle
            {
                OFFSET 0.0 0.0 -20.175941568638564
                CHANNELS 3 Zrotation Xrotation Yrotation
                End Site
                {
                    OFFSET 0.0 5.706618040003151 -5.706618040003151
                }
                End Site
                {
                    OFFSET 0.0 -5.706618040003151 -5.706618040003151
                }
            }
        }
    }
    JOINT LeftHip
    {
        OFFSET 5.381052733225881 0.0 0.0
        CHANNELS 3 Zrotation Xrotation Yrotation
        JOINT LeftKnee
        {
            OFFSET 0.0 0.0 -18.733864813563073
            CHANNELS 3 Zrotation Xrotation Yrotation
            JOINT LeftAnkle
            {
                OFFSET 0.0 0.0 -20.175941568638564
                CHANNELS 3 Zrotation Xrotation Yrotation
                End Site
                {
                    OFFSET 0.0 5.706618040003151 -5.706618040003151
                }
                End Site
                {
                    OFFSET 0.0 -5.706618040003151 -5.706618040003151
                }
            }
        }
    }
}
MOTION
Frames: 4
Frame Time: 0.03333333333333333
-18.00426400674532 42.313336822775604 29.71804588216868 74.88242846270842 12.72580368337845 93.49142061564224 0.4217452276050415 -8.952746455142968 -6.264255637625887 -2.9311072805928036 -1.2229982866250555e-14 -1.9402468382753562e-14 6.3611093629270335e-15 0.0 0.0 38.46251888053173 -2.9032653999583204 -53.330801269837885 138.45638919049307 8.972624870069514e-15 -1.0203317618965203e-14 24.44274334511327 -5.324761094045286 2.4152960783695447 -54.954554980789574 -16.072721144892473 55.51542137302625 -140.6359155575079 7.69409239714022e-15 -1.6263783102378512e-14 -16.564725578111165 22.92423566528914 -173.3912919928505 0.8467828826459868 -17.55213495311561 4.267931746147444 0.2871511219144243 11.10894025770553 -6.25320021611581 -3.1805546814635168e-15 0.0 0.0 1.0309248089197134 -21.06046677244378 7.409871315303471 1.359865483756567 16.629228371274646 -8.153939160200188 0.0 0.0 0.0
-17.335555044494942 41.781408706333394 30.034225963416393 76.6270913249373 9.317550547616229 93.67931629147238 0.05554918733088707 -8.833564685231359 -6.369303721120533 -1.5254621883801047 -6.360545732939565e-15 -8.467766117609582e-17 -6.3611093629270335e-15 0.0 0.0 40.768895051040154 -3.8058725178514172 -56.50681220076339 137.12368145738895 6.355353112373039e-16 7.083483272872744e-15 24.007161240296302 -1.1431977198340417 0.5091084550073054 -46.639577709955226 -21.126512582260887 55.74239144527144 -136.28801782757802 -3.5358065526016163e-15 8.271970543758931e-15 -19.509391580602454 30.534972714057464 -169.7955436846988 0.09689523538235909 -15.16725807706556 0.8018912990967789 0.07450274093129401 9.794695211249934 -2.5220010131360593 0.0 0.0 0.0 0.09939884975273598 -15.540436018107503 4.645869506927439 0.8189234732824489 10.824574793401846 -7.200883147051647 0.0 0.0 0.0
-16.868927906867793 41.34098881025415 30.142157945449267 77.45242356137325 8.455093932191849 93.88421151852083 -0.19289380228285477 -9.31144624780744 -6.2919501213441835 -2.5858839794076403 -2.1529982107984904e-16 9.539234703216945e-15 -6.3611093629270335e-15 6.3611093629270335e-15 3.531125038440127e-31 41.23522762342948 -4.071472687691157 -57.601666052275405 134.50163111641916 1.466564062400287e-15 6.149568044349459e-16 26.8503521375407 0.13308801898190528 -0.0673743722561363 -45.550342590012924 -19.08466229550564 55.972304348587734 -135.19278045623847 1.2122004299937412e-15 2.940492849728168e-15 -17.549836788533952 25.543661291016694 -172.2345371347587 -0.2688222454395354 -12.87115857098348 -0.8907813342170185 0.03976443005375102 7.175922443215353 -0.45682957725388335 -9.54166404439055e-15 -2.648343778830095e-31 3.1805546814635168e-15 -0.25919402740335623 -12.424733693856354 3.1251948770594855 0.5676257632936046 7.454725768819548 -6.020551643937824 -6.3611093629270335e-15 -1.2722218725854067e-14 3.180554681463516e-15
-16.741401359443806 41.25972572881204 30.246018758712157 77.66725052112197 7.155515701369263 93.98634673772806 -0.17311914314414678 -9.44940594995812 -6.20405356653059 -2.2072975772665893 0.0 0.0 6.3611093629270335e-15 0.0 0.0 42.237957654323985 -4.435583109160243 -58.641272082077755 133.96319135017922 -4.390975021976558e-15 -1.865523127806735e-15 26.072742220043107 1.504125137947457 -0.7358512119666762 -46.56295254475758 -17.998210535621414 56.41326025585397 -134.96656170867726 1.0320546580987468e-14 -2.4936582367232913e-14 -15.411048530972192 32.04805167018892 -171.6783568156588 -0.23426226620388804 -12.69222103471472 -2.1818918839022623 -0.14068531811947954 7.185338177324495 0.9230676511844803 0.0 0.0 0.0 -0.2073554628501307 -11.27407954470576 1.4765689490690785 0.27656599097889795 6.21716291553245 -4.175391277065165 3.1805546814635168e-15 0.0 0.0
